<?xml version="1.0" encoding="UTF-8" standalone="no"?>
<svg
   width="447.21359549995793"
   height="223.60679774997897"
   viewBox="0 0 10080 5040"
   version="1.1"
   id="svg8"
   sodipodi:docname="Flag of the Cocos (Keeling) Islands.svg"
   inkscape:version="1.4.2 (f4327f4, 2025-05-13)"
   xmlns:inkscape="http://www.inkscape.org/namespaces/inkscape"
   xmlns:sodipodi="http://sodipodi.sourceforge.net/DTD/sodipodi-0.dtd"
   xmlns:xlink="http://www.w3.org/1999/xlink"
   xmlns="http://www.w3.org/2000/svg"
   xmlns:svg="http://www.w3.org/2000/svg">
  <sodipodi:namedview
     id="namedview8"
     pagecolor="#ffffff"
     bordercolor="#cccccc"
     borderopacity="1"
     inkscape:showpageshadow="0"
     inkscape:pageopacity="1"
     inkscape:pagecheckerboard="0"
     inkscape:deskcolor="#d1d1d1"
     showgrid="false"
     inkscape:zoom="3.2073532"
     inkscape:cx="150.12378"
     inkscape:cy="75.607513"
     inkscape:window-width="1920"
     inkscape:window-height="1017"
     inkscape:window-x="-8"
     inkscape:window-y="-8"
     inkscape:window-maximized="1"
     inkscape:current-layer="svg8" />
  <defs
     id="defs1">
    <path
       id="a"
       d="m0-360 69.421 215.845 212.038-80.301L155.99-35.603l194.985 115.71-225.881 19.651 31.105 224.59L0 160l-156.198 164.349 31.105-224.59-225.881-19.651 194.986-115.711-125.471-188.853 212.038 80.301z" />
    <path
       id="b"
       d="M0-210 54.86-75.508l144.862 10.614L88.765 28.842l34.67 141.052L0 93.334l-123.435 76.56 34.67-141.052-110.957-93.736L-54.86-75.508z" />
  </defs>
  <path
     fill="green"
     d="M0 0h10080v5040H0z"
     id="path1"
     style="fill:#19472c;fill-opacity:1" />
  <circle
     cx="5040"
     cy="2520"
     r="1050"
     fill="#ffe000"
     id="circle1"
     style="fill:#f8c700;fill-opacity:1" />
  <circle
     cx="5367.4"
     cy="2520"
     r="864"
     fill="green"
     id="circle2"
     style="fill:#19472c;fill-opacity:1" />
  <circle
     cx="1730"
     cy="1470"
     r="1100"
     fill="#ffe000"
     id="circle3"
     style="fill:#f8c700;fill-opacity:1" />
  <g
     fill="#ffe000"
     id="g8"
     style="fill:#f8c700;fill-opacity:1">
    <use
       xlink:href="#a"
       x="7560"
       y="4200"
       id="use4"
       style="fill:#f8c700;fill-opacity:1" />
    <use
       xlink:href="#a"
       x="6300"
       y="2205"
       id="use5"
       style="fill:#f8c700;fill-opacity:1" />
    <use
       xlink:href="#a"
       x="7560"
       y="840"
       id="use6"
       style="fill:#f8c700;fill-opacity:1" />
    <use
       xlink:href="#a"
       x="8680"
       y="1869"
       id="use7"
       style="fill:#f8c700;fill-opacity:1" />
    <use
       xlink:href="#b"
       x="8064"
       y="2730"
       id="use8"
       style="fill:#f8c700;fill-opacity:1" />
  </g>
  <path
     fill="#8c4200"
     stroke="#000000"
     stroke-width="2.05968"
     d="m 1463.3631,2304.3885 c -17.9262,55.7836 -36.8329,74.7892 -109.5188,89.1052 -71.705,14.3162 -181.2235,-41.9606 -113.4397,-96.5098 64.7028,-50.8469 132.7667,-63.8052 190.7473,-109.5921 89.7715,-71.8271 213.0149,-220.418 271.5557,-360.8634 64.0024,-153.651 52.9388,-585.9715 49.9976,-805.032 0,-2.4684 -7.7028,-4.0727 -8.6831,-5.0601 -4.2014,-4.9365 -8.1228,1.4809 -1.5406,-30.60678 1.6808,-8.26857 9.8035,-16.78427 9.8035,-25.05307 -0.1399,-14.80968 63.4425,16.16729 80.1083,42.70135 3.9215,6.0473 -12.1842,23.3252 -12.1842,26.6576 -2.1007,210.1746 25.9089,625.0936 -43.2753,812.9304 -42.7152,116.2563 -120.8628,206.1019 -191.4475,289.1599 -42.435,53.1916 -103.6366,110.7027 -122.1232,172.1628 z"
     id="path11"
     style="fill:#812400;fill-opacity:1;stroke:#812400;stroke-opacity:1" />
  <path
     fill="#109421"
     stroke="#000000"
     stroke-width="2.05968"
     d="m 2420.6007,959.41896 c -4.6216,4.93649 -3.9214,26.65757 -3.9214,26.65757 -3.6411,1.7278 -63.5824,-41.22045 -63.5824,-39.24585 0,9.00918 -1.4005,27.64475 -1.4005,27.64475 0,0 -62.0419,-47.51453 -64.5627,-42.57793 -2.8011,5.67719 0.28,33.32196 0.28,33.32196 l -48.8773,-43.44201 c -5.4618,-4.6896 -4.6215,6.04734 -5.0417,23.20192 -0.14,3.0855 -67.6439,-40.10962 -71.7051,-40.85008 -8.8233,-1.60434 -11.4841,22.46143 -11.0641,28.38533 0.4202,4.44287 -62.3219,-28.75563 -59.5211,-24.43606 l -4.6216,25.5467 c -17.5062,-1.8512 -59.1007,-14.43935 -84.0293,-11.10724 -8.1231,0.98721 -7.7029,4.19613 -0.5604,6.66437 120.5826,39.36927 213.4352,98.73151 267.4943,181.41911 18.3464,28.2619 23.9485,52.8214 19.0468,58.992 0,0 -21.5677,-37.6412 -46.0762,-43.5652 -3.2213,-0.7405 -5.4621,24.1891 -8.8233,22.7082 0,0 -18.4866,-37.6413 -31.7911,-51.5872 -3.6413,-3.7025 -9.5234,19.7463 -13.4448,16.2907 0,0 -9.5233,-25.1764 -28.43,-42.8247 -2.6608,-2.4684 -7.5628,23.9423 -10.5036,21.7208 -19.6068,-14.5629 -37.8135,-50.9701 -45.0959,-53.6852 -5.1818,-3.2088 -6.0223,30.2366 -10.9241,27.398 0,0 -27.8697,-45.1696 -44.3956,-53.315 -10.7836,-5.3067 -10.3636,24.6829 -10.3636,24.6829 -21.1474,-16.9078 -44.5358,-44.92289 -55.5995,-57.01747 -5.182,-5.67699 -2.3809,36.77747 -7.7028,38.50517 -7.0024,2.0982 -52.7986,-32.58128 -57.8404,-33.32178 -3.5012,-0.37019 -7.4227,9.87319 1.4006,18.26538 l 56.5799,52.5746 c -10.9239,1.7278 -15.1253,-0.7404 -22.8281,0.8636 -23.2481,4.9368 43.4153,35.7904 42.1549,41.4674 0,0 -32.0712,-0.4936 -21.2876,4.5663 7.7027,3.7024 50.1378,47.638 50.1378,46.0335 0,-0.7402 -21.2875,0.3703 -21.1473,5.3069 0.1398,9.1328 35.1522,56.1535 35.5724,55.9067 1.8206,-1.4809 -18.9067,-1.9747 -21.7077,2.5918 -5.1818,8.6389 35.9927,46.6505 28.0099,53.0681 -1.1204,0.9874 -23.5284,0.3703 -33.4718,2.0981 -4.7617,0.8638 -18.2066,69.112 -14.8453,66.3969 -5.608,-28.2334 -13.5179,-56.0738 -23.6684,-83.3048 -5.6018,-11.6009 -23.6684,17.6484 -25.0687,15.0566 0.7002,0 3.6412,-41.5906 1.1203,-60.5964 -0.7002,-5.3068 -13.7248,5.5536 -13.4446,0.4937 0.4199,-11.4776 1.5405,-23.8192 -1.4006,-35.0497 -2.1007,-8.3921 -13.1647,15.3035 -17.5061,8.8859 0,0 13.4447,-41.2205 7.8426,-52.8214 -3.6412,-7.6516 -12.6043,18.5121 -18.4866,19.4994 0,0 3.3614,-32.0876 -2.8008,-40.2331 l -18.6265,16.0439 c -4.0615,-5.1833 -3.2212,-55.1663 -7.0026,-59.7324 -3.081,-3.9494 -22.408,18.6353 -25.2089,15.1798 -2.6609,-3.3323 8.123,-40.3564 5.602,-43.195 -3.3613,-4.3195 -24.5086,10.2433 -24.9287,9.8733 -8.543,-6.9114 -8.4031,-24.4361 -11.9044,-30.8536 -9.8033,-17.52489 -65.543,-19.74649 -72.1253,-7.405 -3.2211,6.1707 -0.9804,13.9458 0.2802,23.4487 -0.4202,0.2469 -28.0101,1.8513 -28.0101,0.1235 0,0 3.2213,20.7337 1.2604,43.4418 -0.28,3.0854 -27.8696,-0.7404 -28.2898,2.3448 -2.381,21.3509 3.6414,23.4489 3.6414,23.4489 -0.2802,1.4809 -18.6266,-2.4683 -18.9068,-0.7406 -1.206,12.5007 2.4488,24.9914 10.3637,35.4198 1.4005,1.7279 -26.1893,-1.7277 -26.6093,0.3703 -3.3612,16.0441 -3.9215,28.8792 -0.5603,51.5873 0.2801,1.7278 -26.8895,-16.0438 -27.3096,-14.1926 -4.2014,19.0057 0.7002,39.6159 -1.8206,59.4857 -0.5604,4.5665 -17.9264,-13.6991 -19.6069,-8.3924 -1.4007,5.1835 3.9214,42.9483 1.4004,45.17 0,0 -29.2703,-1.2343 -31.7912,0.7403 -23.1082,17.5248 -18.7666,48.1316 -18.7666,48.1316 -6.3023,-3.8257 -3.9214,-40.7267 2.5209,-74.2955 0.7004,-3.5789 -22.408,-2.2214 -21.7078,-5.5535 0,0 25.209,-12.3415 33.6119,-46.5274 1.8206,-7.2813 -24.3685,-5.8003 -24.3685,-5.8003 7.2826,-13.4522 20.027,-16.044 30.8108,-29.0024 3.5012,-4.1962 -27.1696,-6.1707 -27.1696,-7.4048 0,-12.8352 25.9091,-19.006 39.3539,-32.4581 5.7421,-5.6771 -28.0097,-6.0473 -28.0097,-6.0473 9.8033,-11.1073 42.5748,-16.0438 59.2407,-30.6067 8.9631,-8.022 -33.1918,-15.9204 -32.6315,-17.278 4.6215,-11.7244 44.2556,-15.4268 63.5824,-28.7558 3.9215,-2.7149 -25.2089,-11.9709 -25.2089,-11.9709 2.9412,-4.9367 66.3835,-38.62877 34.1721,-35.54337 -13.7249,1.2342 -41.3144,16.90767 -43.4152,14.56287 0,0 1.1203,-19.74627 -1.6807,-21.96776 -10.6439,-8.88589 -47.1967,37.64136 -59.521,35.79026 0,0 -4.6215,-33.32197 -10.2235,-34.30927 -13.4449,-1.9747 -29.6905,48.62517 -42.8552,48.62517 -1.8207,0 -2.801,-29.2492 -9.5234,-30.85359 -7.7028,-1.8512 -16.3858,32.82829 -26.0492,40.47989 -8.9631,7.0347 -9.103,-27.1512 -14.425,-20.6101 -8.9632,10.4902 -11.2042,32.3344 -23.3882,41.9608 -7.9828,6.1707 -9.3833,-30.113 -18.2064,-25.3001 -10.3638,5.6773 -7.9829,24.4361 -19.4669,33.6922 -5.6021,4.4431 -9.2432,-23.9422 -15.4056,-19.746 -5.6019,3.7024 -9.3832,38.2583 -15.4054,43.8118 -7.5628,7.0347 -16.3857,-18.2652 -24.2285,-14.3158 -5.6018,2.9618 -4.3415,32.9515 -9.6633,39.4924 -10.784,13.3288 -16.3859,-16.1672 -23.5285,-11.6008 -5.0417,3.0853 -15.8254,37.5179 -20.3069,40.2329 -9.9436,6.1708 -15.4055,-15.6735 -23.1082,-12.5881 -5.602,2.2213 -16.666,46.6505 -21.2877,45.5398 -2.8007,-0.7405 -10.3635,-101.3232 37.6734,-143.7778 78.0076,-69.11184 274.6369,-119.2182 273.2365,-126.86998 -3.0812,-15.30324 -31.5113,-13.57547 -51.3982,-9.87306 -3.5013,0.49372 -1.6808,-27.15104 -2.1008,-27.15104 -17.7862,-0.49373 -33.6118,8.02185 -50.698,16.29055 -5.1818,2.71509 10.7839,-27.64477 5.182,-25.05311 -21.8478,10.24347 -46.2164,13.2053 -60.7815,25.54684 -3.9214,3.20868 4.3416,-23.32534 4.3416,-23.32534 -10.7838,-2.09795 -32.2115,10.4902 -40.7545,22.46144 -4.2013,5.80048 0.2802,-30.97701 -2.9409,-24.43608 0,0 -38.0936,10.36679 -42.0148,23.20191 0,0 -3.2212,-23.32522 -8.403,-22.09116 -15.1254,3.20881 -28.5701,23.94236 -40.4742,27.02775 0,0 5.0417,-20.8571 1.1203,-20.11653 -28.57,5.92391 -59.6612,20.11653 -59.6612,20.11653 16.1058,-32.58136 77.3075,-66.64376 184.8653,-75.77645 56.1041,-3.47305 112.4816,-0.65273 167.7793,8.39218 55.5996,10.36678 99.435,16.29073 90.4718,9.25607 -36.693,-29.12574 -96.2138,-32.70477 -112.5998,-39.49265 -11.6241,-4.81303 39.494,-20.73356 29.4104,-22.95498 -10.2235,-1.97462 -55.8797,-4.93654 -55.8797,-4.93654 -9.8033,-6.29417 33.1918,-18.51217 26.7494,-27.64484 -12.8843,-18.14187 -89.0713,-1.60441 -95.6537,-8.63897 -2.1005,-2.22154 32.7715,-18.88248 31.3712,-21.3507 -5.6021,-9.13268 -73.3859,6.91117 -75.0666,-1.23421 0,0 20.5873,-12.3414 35.2924,-22.4614 1.6806,-1.23411 -60.6413,-14.80973 -60.6413,-14.80973 7.712,-4.59973 16.0987,-8.25357 24.9288,-10.8605 13.1646,-4.07262 -54.6193,-18.26535 -54.6193,-18.26535 85.8503,-31.71748 308.8091,58.37512 353.0647,151.92312 11.4838,22.33799 11.904,-1.97461 9.383,-20.85697 -2.2406,-20.36338 -5.4618,-38.25843 -2.8008,-56.7706 0.9802,-5.55364 18.2064,14.68634 19.6069,9.25608 4.3414,-19.74638 -8.8232,-41.59066 -2.801,-63.68185 1.9605,-7.40488 25.0687,21.8444 28.0098,14.43941 8.543,-20.36326 -6.1622,-48.99542 -0.28,-77.13385 2.3807,-10.98389 24.2286,23.4487 31.511,13.6989 8.5431,-11.3541 4.9019,-53.56175 8.9631,-59.97932 3.2212,-5.18343 22.6882,20.23999 24.3687,15.42685 26.3291,-77.38089 -8.683,-87.00716 42.0149,-43.44199 1.6804,1.60443 12.8845,-45.66319 14.8451,-44.18228 20.7273,35.79021 54.6193,-25.42332 66.3833,-19.74626 8.6832,4.31942 -23.8083,28.13844 -24.0884,38.75212 -0.1401,5.18336 29.8306,5.55355 29.8306,5.55355 -0.7002,8.76249 -57.0003,33.56881 -58.8207,43.19508 -1.4007,8.02198 39.7739,6.17063 39.7739,6.17063 -1.2603,10.73712 -48.1769,20.98049 -50.6977,32.58139 -1.4006,6.17076 21.9876,7.65179 21.1475,14.19273 -1.2606,9.87319 -45.3762,29.37256 -46.7767,39.49255 -0.9802,6.91127 28.15,9.87319 28.8503,16.29075 0.8402,7.89846 -58.5407,34.4326 -58.6807,41.96086 0,10.36678 23.8083,4.93665 34.4521,10.24339 15.2654,7.40487 -48.5972,37.51803 -51.398,46.157 -2.1009,7.40487 25.629,0.86392 26.6093,7.65167 1.1203,9.00928 -31.371,22.5849 -38.7938,38.01163 -7.4225,15.18003 0.1402,19.12927 10.7839,13.08191 21.4275,-12.21801 107.698,-86.14314 130.666,-105.88952 46.7884,-37.20423 106.5506,-59.27064 169.4598,-62.57105 7.0025,1.72782 -36.6929,26.65755 -36.973,35.66671 0,2.34494 19.607,5.80045 18.7666,6.41756 -12.0443,9.87319 -49.7175,21.35068 -49.7175,21.35068 l 10.7838,15.67365 c -2.5209,4.56633 -20.3072,5.80043 -48.7372,13.45211 0,0 21.2875,10.61369 19.6067,11.601 -14.9852,9.8732 -44.2555,16.90774 -44.2555,16.90774 l 28.8501,7.89858 c 1.6806,4.44283 -64.9828,25.91704 -64.9828,25.91704 0,0 20.8675,14.56281 19.8871,15.30331 -5.0418,4.07274 -53.919,13.20532 -53.919,13.20532 -0.8404,0.61709 34.4522,9.50287 34.3121,9.74978 -12.8846,10.36682 -48.3171,13.69904 -56.5799,30.85361 0,0 -4.7618,9.74974 9.2431,7.89854 55.0395,-16.16737 140.3296,-49.48924 305.7279,-36.40732 169.1795,17.77172 298.0249,136.37284 295.7843,148.09724 0,0 -60.5014,-34.92616 -66.8036,-27.76817 z"
     id="path12"
     sodipodi:nodetypes="ccscccccccccccccccccccccccccccccccsccccccccccccccccccccccccccccccccccccccccccscccccccccccsccccccccccccccccccccccccccccccccccccccccccccccccccccccccccccccccccccccccccccccccccccccccc"
     style="fill:#19472c;fill-opacity:1;stroke:#19472c;stroke-opacity:1" />
</svg>
